<svg width="65" height="44" viewBox="0 0 65 44" fill="none" xmlns="http://www.w3.org/2000/svg">
<path d="M37.561 0V12.5714C39.126 10.5286 41.4736 9.42857 43.8211 9.42857C50.0813 9.42857 53.2114 13.0429 53.2114 20.4286V34.5714H45.3862V20.4286C45.3862 18.8571 44.1341 16.5 41.3171 16.5C38.813 16.5 37.561 18.7 37.561 22V34.5714H29.7358V0H0V44H64.1667V0H37.561ZM25.0406 17.2857C19.0935 16.0286 18.7805 20.4286 18.7805 22C18.7805 23.5714 18.7805 34.5714 18.7805 34.5714H10.9553V9.42857H18.7805V12.5714C20.3455 10.3714 23.4756 9.42857 25.0406 9.42857V17.2857Z" fill="#CC0033"/>
<path d="M18.7805 12.5714V9.42859H10.9553V34.5714H18.7805C18.7805 34.5714 18.7805 23.5714 18.7805 22C18.7805 20.4286 19.0935 16.0286 25.0406 17.2857V9.42859C23.4756 9.42859 20.3455 10.3714 18.7805 12.5714Z" fill="white"/>
<path d="M37.5607 34.5714V22C37.5607 18.7 38.8127 16.5 41.3168 16.5C44.1338 16.5 45.3859 18.8571 45.3859 20.4286V34.5714H53.2111V20.4286C53.2111 13.0429 50.081 9.42857 43.8208 9.42857C41.4733 9.42857 39.1257 10.5286 37.5607 12.5714V0H29.7355V34.5714H37.5607Z" fill="white"/>
</svg>
