<svg xmlns="http://www.w3.org/2000/svg" xmlns:xlink="http://www.w3.org/1999/xlink" viewBox="0 0 948 504" class="UFQPDd" preserveAspectRatio="xMidYMid meet">
  <defs>
    <clipPath id="__lottie_element_2">
      <rect width="948" height="504" x="0" y="0"/>
    </clipPath>
    <g id="__lottie_element_28">
      <g transform="matrix(1,0,0,1,476.25,252)" opacity="1" style="display: block;">
        <g opacity="1" transform="matrix(1,0,0,1,-2.25,0)">
          <path fill="rgb(19,19,20)" fill-opacity="1" d=" M-72,-226.5 C-72,-226.5 72,-226.5 72,-226.5 C94.36799621582031,-226.5 112.5,-208.3679962158203 112.5,-186 C112.5,-186 112.5,186 112.5,186 C112.5,208.3679962158203 94.36799621582031,226.5 72,226.5 C72,226.5 -72,226.5 -72,226.5 C-94.36799621582031,226.5 -112.5,208.3679962158203 -112.5,186 C-112.5,186 -112.5,-186 -112.5,-186 C-112.5,-208.3679962158203 -94.36799621582031,-226.5 -72,-226.5z"/>
          <path stroke-linecap="butt" stroke-linejoin="miter" fill-opacity="0" stroke-miterlimit="4" stroke="rgb(227,227,228)" stroke-opacity="1" stroke-width="3" d=" M-72,-226.5 C-72,-226.5 72,-226.5 72,-226.5 C94.36799621582031,-226.5 112.5,-208.3679962158203 112.5,-186 C112.5,-186 112.5,186 112.5,186 C112.5,208.3679962158203 94.36799621582031,226.5 72,226.5 C72,226.5 -72,226.5 -72,226.5 C-94.36799621582031,226.5 -112.5,208.3679962158203 -112.5,186 C-112.5,186 -112.5,-186 -112.5,-186 C-112.5,-208.3679962158203 -94.36799621582031,-226.5 -72,-226.5z"/>
        </g>
      </g>
    </g>
    <mask id="__lottie_element_28_1" mask-type="alpha">
      <use xlink:href="#__lottie_element_28"/>
    </mask>
    <g id="__lottie_element_83">
      <g style="display: block;" transform="matrix(1,0,0,1,474,252)" opacity="1">
        <g opacity="1" transform="matrix(1,0,0,1,0,0)">
          <path fill="rgb(242,242,243)" fill-opacity="1" d=" M-72,-226.5 C-72,-226.5 72,-226.5 72,-226.5 C94.36799621582031,-226.5 112.5,-208.3679962158203 112.5,-186 C112.5,-186 112.5,186 112.5,186 C112.5,208.3679962158203 94.36799621582031,226.5 72,226.5 C72,226.5 -72,226.5 -72,226.5 C-94.36799621582031,226.5 -112.5,208.3679962158203 -112.5,186 C-112.5,186 -112.5,-186 -112.5,-186 C-112.5,-208.3679962158203 -94.36799621582031,-226.5 -72,-226.5z"/>
        </g>
      </g>
    </g>
  </defs>
  <g clip-path="url(#__lottie_element_2)">
    <g transform="matrix(1,0,0,1,476.25,252)" opacity="1" style="display: block;">
      <g opacity="1" transform="matrix(1,0,0,1,111.75,-144)">
        <path fill="rgb(227,227,228)" fill-opacity="1" d=" M-3,-27 C-3,-27 -1.11899995803833,-27 -1.11899995803833,-27 C1.1549999713897705,-27 3,-25.156999588012695 3,-22.882999420166016 C3,-22.882999420166016 3,22.881999969482422 3,22.881999969482422 C3,25.1560001373291 1.1549999713897705,27 -1.11899995803833,27 C-1.11899995803833,27 -3,27 -3,27 C-3,27 -3,-27 -3,-27z"/>
      </g>
      <g opacity="1" transform="matrix(1,0,0,1,111.75,-93)">
        <path fill="rgb(227,227,228)" fill-opacity="1" d=" M-3,-12 C-3,-12 -1.11899995803833,-12 -1.11899995803833,-12 C1.1549999713897705,-12 3,-10.156000137329102 3,-7.881999969482422 C3,-7.881999969482422 3,7.881999969482422 3,7.881999969482422 C3,10.156000137329102 1.1549999713897705,12 -1.11899995803833,12 C-1.11899995803833,12 -3,12 -3,12 C-3,12 -3,-12 -3,-12z"/>
      </g>
      <g opacity="1" transform="matrix(1,0,0,1,-2.25,0)">
        <path fill="rgb(19,19,20)" fill-opacity="1" d=" M-72,-226.5 C-72,-226.5 72,-226.5 72,-226.5 C94.36799621582031,-226.5 112.5,-208.3679962158203 112.5,-186 C112.5,-186 112.5,186 112.5,186 C112.5,208.3679962158203 94.36799621582031,226.5 72,226.5 C72,226.5 -72,226.5 -72,226.5 C-94.36799621582031,226.5 -112.5,208.3679962158203 -112.5,186 C-112.5,186 -112.5,-186 -112.5,-186 C-112.5,-208.3679962158203 -94.36799621582031,-226.5 -72,-226.5z"/>
        <path stroke-linecap="butt" stroke-linejoin="miter" fill-opacity="0" stroke-miterlimit="4" stroke="rgb(227,227,228)" stroke-opacity="1" stroke-width="3" d=" M-72,-226.5 C-72,-226.5 72,-226.5 72,-226.5 C94.36799621582031,-226.5 112.5,-208.3679962158203 112.5,-186 C112.5,-186 112.5,186 112.5,186 C112.5,208.3679962158203 94.36799621582031,226.5 72,226.5 C72,226.5 -72,226.5 -72,226.5 C-94.36799621582031,226.5 -112.5,208.3679962158203 -112.5,186 C-112.5,186 -112.5,-186 -112.5,-186 C-112.5,-208.3679962158203 -94.36799621582031,-226.5 -72,-226.5z"/>
      </g>
      <g opacity="1" transform="matrix(1,0,0,1,-2.25,-207)">
        <path fill="rgb(227,227,228)" fill-opacity="1" d=" M0,-6 C0,-6 0,-6 0,-6 C3.313999891281128,-6 6,-3.313999891281128 6,0 C6,0 6,0 6,0 C6,3.313999891281128 3.313999891281128,6 0,6 C0,6 0,6 0,6 C-3.313999891281128,6 -6,3.313999891281128 -6,0 C-6,0 -6,0 -6,0 C-6,-3.313999891281128 -3.313999891281128,-6 0,-6z"/>
      </g>
    </g>
    <g mask="url(#__lottie_element_28_1)" style="display: none;">
      <g transform="matrix(0.9174277782440186,0,0,0.9174277782440186,429.9685974121094,213.46292114257812)" opacity="0.024994000000036466">
        <g opacity="1" transform="matrix(1,0,0,1,0,0)">
          <path fill="rgb(69,71,71)" fill-opacity="1" d=" M14.06,-8.49 C15.12,-6.63 16.19,-4.76 17.25,-2.9 C17.25,-2.9 17.26,-2.9 17.26,-2.9 C17.72,-2.1 18.18,-1.29 18.64,-0.48 C19.1,0.33 19.56,1.14 20.03,1.95 C21.94,5.31 23.93,8.92 24,12.96 C24.07,17.39 21.52,21.71 17.97,23.23 C15.11,24.45 11.92,23.94 8.96,23.12 C8.33,22.94 7.69,22.75 7.06,22.56 C4.73,21.86 2.39,21.15 0,21.15 C-2.43,21.15 -4.78,21.86 -7.14,22.58 C-8.24,22.91 -9.35,23.25 -10.47,23.51 C-13.65,24.26 -17.89,24.48 -20.51,21.75 C-23,19.15 -24.41,15.16 -23.89,11.24 C-23.46,7.99 -21.85,5.16 -20.29,2.43 C-18.22,-1.15 -16.16,-4.74 -14.1,-8.33 C-12.86,-10.47 -11.63,-12.61 -10.4,-14.76 C-9.18,-16.88 -7.94,-19.02 -6.35,-20.76 C-4.76,-22.49 -2.74,-23.83 -0.56,-23.98 C1.92,-24.16 4.34,-22.8 6.21,-20.88 C8.08,-18.95 9.48,-16.5 10.86,-14.08 C11.93,-12.22 12.99,-10.35 14.06,-8.49z M-18,-36 C-27.941999435424805,-36 -36,-27.94099998474121 -36,-18 C-36,-18 -36,18 -36,18 C-36,27.94099998474121 -27.941999435424805,36 -18,36 C-18,36 18,36 18,36 C27.941999435424805,36 36,27.94099998474121 36,18 C36,18 36,-18 36,-18 C36,-27.94099998474121 27.941999435424805,-36 18,-36 C18,-36 -18,-36 -18,-36z"/>
          <g opacity="1" transform="matrix(1,0,0,1,0.0010000000474974513,0)"/>
          <g opacity="1" transform="matrix(1,0,0,1,0,0)"/>
        </g>
      </g>
    </g>
    <g mask="url(#__lottie_element_28_1)" style="display: none;">
      <g transform="matrix(0.9174277782440186,0,0,0.9174277782440186,518.0365600585938,213.46803283691406)" opacity="0.024994000000036466">
        <g opacity="1" transform="matrix(1,0,0,1,0,0)">
          <path fill="rgb(69,71,71)" fill-opacity="1" d=" M22.934999465942383,-6.638999938964844 C27.413999557495117,-16.948999404907227 16.950000762939453,-27.413999557495117 6.638999938964844,-22.93600082397461 C6.638999938964844,-22.93600082397461 4.934999942779541,-22.19499969482422 4.934999942779541,-22.19499969482422 C1.7879999876022339,-20.827999114990234 -1.7879999876022339,-20.827999114990234 -4.934999942779541,-22.19499969482422 C-4.934999942779541,-22.19499969482422 -6.638999938964844,-22.93600082397461 -6.638999938964844,-22.93600082397461 C-16.950000762939453,-27.413999557495117 -27.413999557495117,-16.948999404907227 -22.934999465942383,-6.638999938964844 C-22.934999465942383,-6.638999938964844 -22.19700050354004,-4.934999942779541 -22.19700050354004,-4.934999942779541 C-20.82900047302246,-1.7869999408721924 -20.82900047302246,1.7869999408721924 -22.19700050354004,4.934999942779541 C-22.19700050354004,4.934999942779541 -22.934999465942383,6.638999938964844 -22.934999465942383,6.638999938964844 C-27.413999557495117,16.948999404907227 -16.950000762939453,27.413999557495117 -6.638999938964844,22.93600082397461 C-6.638999938964844,22.93600082397461 -4.934999942779541,22.19499969482422 -4.934999942779541,22.19499969482422 C-1.7879999876022339,20.827999114990234 1.7879999876022339,20.827999114990234 4.934999942779541,22.19499969482422 C4.934999942779541,22.19499969482422 6.638999938964844,22.93600082397461 6.638999938964844,22.93600082397461 C16.950000762939453,27.413999557495117 27.413999557495117,16.948999404907227 22.934999465942383,6.638999938964844 C22.934999465942383,6.638999938964844 22.19700050354004,4.934999942779541 22.19700050354004,4.934999942779541 C20.82900047302246,1.7869999408721924 20.82900047302246,-1.7869999408721924 22.19700050354004,-4.934999942779541 C22.19700050354004,-4.934999942779541 22.934999465942383,-6.638999938964844 22.934999465942383,-6.638999938964844z M-18,-36 C-27.941999435424805,-36 -36,-27.94099998474121 -36,-18 C-36,-18 -36,18 -36,18 C-36,27.94099998474121 -27.941999435424805,36 -18,36 C-18,36 18,36 18,36 C27.941999435424805,36 36,27.94099998474121 36,18 C36,18 36,-18 36,-18 C36,-27.94099998474121 27.941999435424805,-36 18,-36 C18,-36 -18,-36 -18,-36z"/>
          <g opacity="1" transform="matrix(1,0,0,1,0,0)"/>
          <g opacity="1" transform="matrix(1,0,0,1,0,0)"/>
        </g>
      </g>
    </g>
    <g mask="url(#__lottie_element_28_1)" style="display: none;">
      <g transform="matrix(0.9174277782440186,0,0,0.9174277782440186,518.0365600585938,213.46803283691406)" opacity="0.024994000000036466">
        <g opacity="1" transform="matrix(1,0,0,1,0,0)">
          <path fill="rgb(19,19,20)" fill-opacity="1" d=" M22.934999465942383,-6.638999938964844 C27.413999557495117,-16.948999404907227 16.950000762939453,-27.413999557495117 6.638999938964844,-22.93600082397461 C6.638999938964844,-22.93600082397461 4.934999942779541,-22.19499969482422 4.934999942779541,-22.19499969482422 C1.7879999876022339,-20.827999114990234 -1.7879999876022339,-20.827999114990234 -4.934999942779541,-22.19499969482422 C-4.934999942779541,-22.19499969482422 -6.638999938964844,-22.93600082397461 -6.638999938964844,-22.93600082397461 C-16.950000762939453,-27.413999557495117 -27.413999557495117,-16.948999404907227 -22.934999465942383,-6.638999938964844 C-22.934999465942383,-6.638999938964844 -22.19700050354004,-4.934999942779541 -22.19700050354004,-4.934999942779541 C-20.82900047302246,-1.7869999408721924 -20.82900047302246,1.7869999408721924 -22.19700050354004,4.934999942779541 C-22.19700050354004,4.934999942779541 -22.934999465942383,6.638999938964844 -22.934999465942383,6.638999938964844 C-27.413999557495117,16.948999404907227 -16.950000762939453,27.413999557495117 -6.638999938964844,22.93600082397461 C-6.638999938964844,22.93600082397461 -4.934999942779541,22.19499969482422 -4.934999942779541,22.19499969482422 C-1.7879999876022339,20.827999114990234 1.7879999876022339,20.827999114990234 4.934999942779541,22.19499969482422 C4.934999942779541,22.19499969482422 6.638999938964844,22.93600082397461 6.638999938964844,22.93600082397461 C16.950000762939453,27.413999557495117 27.413999557495117,16.948999404907227 22.934999465942383,6.638999938964844 C22.934999465942383,6.638999938964844 22.19700050354004,4.934999942779541 22.19700050354004,4.934999942779541 C20.82900047302246,1.7869999408721924 20.82900047302246,-1.7869999408721924 22.19700050354004,-4.934999942779541 C22.19700050354004,-4.934999942779541 22.934999465942383,-6.638999938964844 22.934999465942383,-6.638999938964844z"/>
          <g opacity="1" transform="matrix(1,0,0,1,0,0)"/>
        </g>
      </g>
    </g>
    <g mask="url(#__lottie_element_28_1)" style="display: none;">
      <g transform="matrix(0.9174277782440186,0,0,0.9174277782440186,429.9634704589844,290.531982421875)" opacity="0.024994000000036466">
        <g opacity="1" transform="matrix(1,0,0,1,0,0)">
          <path fill="rgb(69,71,71)" fill-opacity="1" d=" M17.95800018310547,-17.95599937438965 C9.899999618530273,-26.013999938964844 -3.1649999618530273,-26.013999938964844 -11.222999572753906,-17.95599937438965 C-11.222999572753906,-17.95599937438965 -17.95800018310547,-11.222999572753906 -17.95800018310547,-11.222999572753906 C-26.01300048828125,-3.1649999618530273 -26.01300048828125,9.899999618530273 -17.95800018310547,17.95800018310547 C-9.899999618530273,26.01300048828125 3.1649999618530273,26.01300048828125 11.222999572753906,17.95800018310547 C11.222999572753906,17.95800018310547 17.95800018310547,11.222999572753906 17.95800018310547,11.222999572753906 C26.01300048828125,3.1649999618530273 26.01300048828125,-9.89799976348877 17.95800018310547,-17.95599937438965z M-18,-36 C-27.941999435424805,-36 -36,-27.94099998474121 -36,-18 C-36,-18 -36,18 -36,18 C-36,27.941999435424805 -27.941999435424805,36 -18,36 C-18,36 18,36 18,36 C27.941999435424805,36 36,27.941999435424805 36,18 C36,18 36,-18 36,-18 C36,-27.94099998474121 27.941999435424805,-36 18,-36 C18,-36 -18,-36 -18,-36z"/>
          <g opacity="1" transform="matrix(1,0,0,1,0,0)"/>
          <g opacity="1" transform="matrix(1,0,0,1,0,0)"/>
        </g>
      </g>
    </g>
    <g mask="url(#__lottie_element_28_1)" style="display: none;">
      <g transform="matrix(0.9174277782440186,0,0,0.9174277782440186,429.9634704589844,290.531982421875)" opacity="0.024994000000036466">
        <g opacity="1" transform="matrix(1,0,0,1,0,0)">
          <path fill="rgb(19,19,20)" fill-opacity="1" d=" M17.95800018310547,-17.95599937438965 C9.899999618530273,-26.013999938964844 -3.1649999618530273,-26.013999938964844 -11.222999572753906,-17.95599937438965 C-11.222999572753906,-17.95599937438965 -17.95800018310547,-11.222999572753906 -17.95800018310547,-11.222999572753906 C-26.01300048828125,-3.1649999618530273 -26.01300048828125,9.899999618530273 -17.95800018310547,17.95800018310547 C-9.899999618530273,26.01300048828125 3.1649999618530273,26.01300048828125 11.222999572753906,17.95800018310547 C11.222999572753906,17.95800018310547 17.95800018310547,11.222999572753906 17.95800018310547,11.222999572753906 C26.01300048828125,3.1649999618530273 26.01300048828125,-9.89799976348877 17.95800018310547,-17.95599937438965z"/>
          <g opacity="1" transform="matrix(1,0,0,1,0,0)"/>
        </g>
      </g>
    </g>
    <g mask="url(#__lottie_element_28_1)" style="display: none;">
      <g transform="matrix(0.9174277782440186,0,0,0.9174277782440186,518.0416870117188,290.52685546875)" opacity="0.024994000000036466">
        <g opacity="1" transform="matrix(1,0,0,1,0,0)">
          <path fill="rgb(69,71,71)" fill-opacity="1" d=" M19.04,12 C21.78,12 24,9.78 24,7.04 C24,7.04 24,6 24,6 C24,-7.26 13.25,-18 0,-18 C-13.25,-18 -24,-7.26 -24,6 C-24,6 -24,7.04 -24,7.04 C-24,9.78 -21.78,12 -19.04,12 C-19.04,12 19.04,12 19.04,12z M-18,-36 C-27.941999435424805,-36 -36,-27.94099998474121 -36,-18 C-36,-18 -36,18 -36,18 C-36,27.941999435424805 -27.941999435424805,36 -18,36 C-18,36 18,36 18,36 C27.941999435424805,36 36,27.941999435424805 36,18 C36,18 36,-18 36,-18 C36,-27.94099998474121 27.941999435424805,-36 18,-36 C18,-36 -18,-36 -18,-36z"/>
          <g opacity="1" transform="matrix(1,0,0,1,0,-3)"/>
          <g opacity="1" transform="matrix(1,0,0,1,0,0)"/>
        </g>
      </g>
    </g>
    <g mask="url(#__lottie_element_28_1)" style="display: none;">
      <g transform="matrix(0.9174277782440186,0,0,0.9174277782440186,518.0416870117188,290.52685546875)" opacity="0.024994000000036466">
        <g opacity="1" transform="matrix(1,0,0,1,0,0)">
          <path fill="rgb(19,19,20)" fill-opacity="1" d=" M19.04,12 C21.78,12 24,9.78 24,7.04 C24,7.04 24,6 24,6 C24,-7.26 13.25,-18 0,-18 C-13.25,-18 -24,-7.26 -24,6 C-24,6 -24,7.04 -24,7.04 C-24,9.78 -21.78,12 -19.04,12 C-19.04,12 19.04,12 19.04,12z"/>
          <g opacity="1" transform="matrix(1,0,0,1,0,-3)"/>
        </g>
      </g>
    </g>
    <g mask="url(#__lottie_element_28_1)" style="display: none;">
      <g transform="matrix(0.9174277782440186,0,0,0.9174277782440186,518.046875,367.59588623046875)" opacity="0.024994000000036466">
        <g opacity="1" transform="matrix(1,0,0,1,0,0)">
          <path fill="rgb(69,71,71)" fill-opacity="1" d=" M-5.21,-21.99 C-5.21,-21.99 -5.21,-21.99 -5.21,-21.99 C-5.32,-21.9 -5.39,-21.85 -5.44,-21.8 C-6.75,-20.76 -8.35,-20.17 -10.02,-20.12 C-10.1,-20.12 -10.17,-20.12 -10.32,-20.11 C-10.65,-20.11 -10.82,-20.11 -10.97,-20.1 C-14.45,-19.92 -17.4,-17.43 -18.18,-13.99 C-18.21,-13.84 -18.24,-13.68 -18.3,-13.35 C-18.3,-13.35 -18.3,-13.35 -18.3,-13.35 C-18.33,-13.2 -18.34,-13.13 -18.36,-13.05 C-18.7,-11.4 -19.55,-9.91 -20.8,-8.79 C-20.85,-8.74 -20.91,-8.69 -21.02,-8.59 C-21.27,-8.37 -21.4,-8.26 -21.51,-8.16 C-24.07,-5.76 -24.73,-1.93 -23.14,1.2 C-23.08,1.34 -23,1.48 -22.83,1.78 C-22.83,1.78 -22.83,1.78 -22.83,1.78 C-22.76,1.91 -22.72,1.98 -22.69,2.04 C-21.9,3.52 -21.6,5.23 -21.84,6.89 C-21.85,6.97 -21.86,7.04 -21.89,7.19 C-21.89,7.19 -21.89,7.19 -21.89,7.19 C-21.94,7.52 -21.97,7.69 -21.98,7.84 C-22.42,11.34 -20.5,14.7 -17.28,16.07 C-17.15,16.13 -16.99,16.19 -16.68,16.31 C-16.68,16.31 -16.67,16.31 -16.67,16.31 C-16.54,16.36 -16.47,16.39 -16.4,16.42 C-14.85,17.04 -13.54,18.15 -12.66,19.58 C-12.62,19.64 -12.59,19.71 -12.51,19.84 C-12.51,19.84 -12.51,19.84 -12.51,19.84 C-12.51,19.84 -12.51,19.84 -12.51,19.84 C-12.34,20.13 -12.26,20.27 -12.17,20.4 C-10.28,23.36 -6.67,24.69 -3.33,23.65 C-3.19,23.61 -3.03,23.55 -2.72,23.44 C-2.72,23.44 -2.72,23.44 -2.72,23.44 C-2.58,23.39 -2.51,23.36 -2.44,23.34 C-0.86,22.81 0.86,22.81 2.44,23.34 C2.51,23.36 2.58,23.39 2.71,23.44 C2.71,23.44 2.72,23.44 2.72,23.44 C3.03,23.55 3.19,23.61 3.33,23.65 C6.67,24.69 10.28,23.36 12.17,20.4 C12.26,20.27 12.34,20.13 12.51,19.84 C12.51,19.84 12.51,19.84 12.51,19.84 C12.59,19.71 12.62,19.64 12.66,19.58 C13.54,18.15 14.85,17.04 16.4,16.42 C16.47,16.39 16.54,16.36 16.67,16.31 C16.67,16.31 16.68,16.31 16.68,16.31 C16.99,16.19 17.15,16.13 17.28,16.07 C20.5,14.7 22.42,11.34 21.98,7.84 C21.97,7.69 21.94,7.52 21.89,7.19 C21.86,7.04 21.85,6.97 21.84,6.89 C21.6,5.23 21.9,3.52 22.69,2.04 C22.72,1.98 22.76,1.91 22.83,1.78 C23,1.48 23.08,1.34 23.14,1.2 C24.73,-1.93 24.07,-5.76 21.51,-8.16 C21.4,-8.26 21.27,-8.37 21.02,-8.59 C21.02,-8.59 21.02,-8.59 21.02,-8.59 C21.02,-8.59 21.02,-8.59 21.02,-8.59 C20.91,-8.69 20.85,-8.74 20.8,-8.79 C19.55,-9.91 18.7,-11.4 18.36,-13.05 C18.34,-13.13 18.33,-13.2 18.3,-13.35 C18.3,-13.35 18.3,-13.35 18.3,-13.35 C18.24,-13.68 18.21,-13.84 18.18,-13.99 C17.4,-17.43 14.45,-19.92 10.97,-20.1 C10.82,-20.11 10.65,-20.11 10.32,-20.11 C10.17,-20.12 10.1,-20.12 10.02,-20.12 C8.35,-20.17 6.75,-20.76 5.44,-21.8 C5.39,-21.85 5.32,-21.9 5.21,-21.99 C5.21,-21.99 5.21,-21.99 5.21,-21.99 C4.95,-22.21 4.82,-22.31 4.7,-22.4 C1.92,-24.53 -1.92,-24.53 -4.7,-22.4 C-4.82,-22.31 -4.95,-22.21 -5.21,-21.99z M-18,-36 C-27.941999435424805,-36 -36,-27.941999435424805 -36,-18 C-36,-18 -36,18 -36,18 C-36,27.941999435424805 -27.941999435424805,36 -18,36 C-18,36 18,36 18,36 C27.941999435424805,36 36,27.941999435424805 36,18 C36,18 36,-18 36,-18 C36,-27.941999435424805 27.941999435424805,-36 18,-36 C18,-36 -18,-36 -18,-36z"/>
          <g opacity="1" transform="matrix(1,0,0,1,0,0.0010000000474974513)"/>
          <g opacity="1" transform="matrix(1,0,0,1,0,0)"/>
        </g>
      </g>
    </g>
    <g mask="url(#__lottie_element_28_1)" style="display: none;">
      <g transform="matrix(0.9174277782440186,0,0,0.9174277782440186,518.046875,367.59588623046875)" opacity="0.024994000000036466">
        <g opacity="1" transform="matrix(1,0,0,1,0,0)">
          <path fill="rgb(19,19,20)" fill-opacity="1" d=" M-5.21,-21.99 C-5.21,-21.99 -5.21,-21.99 -5.21,-21.99 C-5.32,-21.9 -5.39,-21.85 -5.44,-21.8 C-6.75,-20.76 -8.35,-20.17 -10.02,-20.12 C-10.1,-20.12 -10.17,-20.12 -10.32,-20.11 C-10.65,-20.11 -10.82,-20.11 -10.97,-20.1 C-14.45,-19.92 -17.4,-17.43 -18.18,-13.99 C-18.21,-13.84 -18.24,-13.68 -18.3,-13.35 C-18.3,-13.35 -18.3,-13.35 -18.3,-13.35 C-18.33,-13.2 -18.34,-13.13 -18.36,-13.05 C-18.7,-11.4 -19.55,-9.91 -20.8,-8.79 C-20.85,-8.74 -20.91,-8.69 -21.02,-8.59 C-21.27,-8.37 -21.4,-8.26 -21.51,-8.16 C-24.07,-5.76 -24.73,-1.93 -23.14,1.2 C-23.08,1.34 -23,1.48 -22.83,1.78 C-22.83,1.78 -22.83,1.78 -22.83,1.78 C-22.76,1.91 -22.72,1.98 -22.69,2.04 C-21.9,3.52 -21.6,5.23 -21.84,6.89 C-21.85,6.97 -21.86,7.04 -21.89,7.19 C-21.89,7.19 -21.89,7.19 -21.89,7.19 C-21.94,7.52 -21.97,7.69 -21.98,7.84 C-22.42,11.34 -20.5,14.7 -17.28,16.07 C-17.15,16.13 -16.99,16.19 -16.68,16.31 C-16.68,16.31 -16.67,16.31 -16.67,16.31 C-16.54,16.36 -16.47,16.39 -16.4,16.42 C-14.85,17.04 -13.54,18.15 -12.66,19.58 C-12.62,19.64 -12.59,19.71 -12.51,19.84 C-12.51,19.84 -12.51,19.84 -12.51,19.84 C-12.51,19.84 -12.51,19.84 -12.51,19.84 C-12.34,20.13 -12.26,20.27 -12.17,20.4 C-10.28,23.36 -6.67,24.69 -3.33,23.65 C-3.19,23.61 -3.03,23.55 -2.72,23.44 C-2.72,23.44 -2.72,23.44 -2.72,23.44 C-2.58,23.39 -2.51,23.36 -2.44,23.34 C-0.86,22.81 0.86,22.81 2.44,23.34 C2.51,23.36 2.58,23.39 2.71,23.44 C2.71,23.44 2.72,23.44 2.72,23.44 C3.03,23.55 3.19,23.61 3.33,23.65 C6.67,24.69 10.28,23.36 12.17,20.4 C12.26,20.27 12.34,20.13 12.51,19.84 C12.51,19.84 12.51,19.84 12.51,19.84 C12.59,19.71 12.62,19.64 12.66,19.58 C13.54,18.15 14.85,17.04 16.4,16.42 C16.47,16.39 16.54,16.36 16.67,16.31 C16.67,16.31 16.68,16.31 16.68,16.31 C16.99,16.19 17.15,16.13 17.28,16.07 C20.5,14.7 22.42,11.34 21.98,7.84 C21.97,7.69 21.94,7.52 21.89,7.19 C21.86,7.04 21.85,6.97 21.84,6.89 C21.6,5.23 21.9,3.52 22.69,2.04 C22.72,1.98 22.76,1.91 22.83,1.78 C23,1.48 23.08,1.34 23.14,1.2 C24.73,-1.93 24.07,-5.76 21.51,-8.16 C21.4,-8.26 21.27,-8.37 21.02,-8.59 C21.02,-8.59 21.02,-8.59 21.02,-8.59 C21.02,-8.59 21.02,-8.59 21.02,-8.59 C20.91,-8.69 20.85,-8.74 20.8,-8.79 C19.55,-9.91 18.7,-11.4 18.36,-13.05 C18.34,-13.13 18.33,-13.2 18.3,-13.35 C18.3,-13.35 18.3,-13.35 18.3,-13.35 C18.24,-13.68 18.21,-13.84 18.18,-13.99 C17.4,-17.43 14.45,-19.92 10.97,-20.1 C10.82,-20.11 10.65,-20.11 10.32,-20.11 C10.17,-20.12 10.1,-20.12 10.02,-20.12 C8.35,-20.17 6.75,-20.76 5.44,-21.8 C5.39,-21.85 5.32,-21.9 5.21,-21.99 C5.21,-21.99 5.21,-21.99 5.21,-21.99 C4.95,-22.21 4.82,-22.31 4.7,-22.4 C1.92,-24.53 -1.92,-24.53 -4.7,-22.4 C-4.82,-22.31 -4.95,-22.21 -5.21,-21.99z"/>
          <g opacity="1" transform="matrix(1,0,0,1,0,0.0010000000474974513)"/>
        </g>
      </g>
    </g>
    <g mask="url(#__lottie_element_28_1)" style="display: none;">
      <g transform="matrix(0.9174277782440186,0,0,0.9174277782440186,429.9685974121094,367.59588623046875)" opacity="0.024994000000036466">
        <g opacity="1" transform="matrix(1,0,0,1,0,0)">
          <path fill="rgb(69,71,71)" fill-opacity="1" d=" M2.2950000762939453,-11.538000106811523 C5.499000072479248,-28.24799919128418 -5.5980000495910645,-28.152000427246094 -2.23799991607666,-11.258999824523926 C-5.616000175476074,-28.24799919128418 -16.00200080871582,-23.945999145507812 -6.377999782562256,-9.543000221252441 C-16.00200080871582,-23.945999145507812 -23.945999145507812,-16.00200080871582 -9.543000221252441,-6.377999782562256 C-23.945999145507812,-16.00200080871582 -28.24799919128418,-5.616000175476074 -11.258999824523926,-2.23799991607666 C-28.24799919128418,-5.61899995803833 -28.24799919128418,5.61899995803833 -11.258999824523926,2.23799991607666 C-28.24799919128418,5.61899995803833 -23.945999145507812,16.00200080871582 -9.543000221252441,6.377999782562256 C-23.945999145507812,16.00200080871582 -15.99899959564209,23.945999145507812 -6.377999782562256,9.543000221252441 C-16.00200080871582,23.945999145507812 -5.616000175476074,28.2450008392334 -2.23799991607666,11.258999824523926 C-5.61899995803833,28.24799919128418 5.61899995803833,28.24799919128418 2.23799991607666,11.258999824523926 C5.61899995803833,28.24799919128418 16.00200080871582,23.945999145507812 6.377999782562256,9.543000221252441 C16.00200080871582,23.945999145507812 23.945999145507812,15.99899959564209 9.543000221252441,6.377999782562256 C23.945999145507812,16.00200080871582 28.2450008392334,5.616000175476074 11.258999824523926,2.23799991607666 C28.24799919128418,5.61899995803833 28.24799919128418,-5.61899995803833 11.258999824523926,-2.23799991607666 C28.24799919128418,-5.61899995803833 23.945999145507812,-16.00200080871582 9.543000221252441,-6.377999782562256 C23.945999145507812,-16.00200080871582 15.99899959564209,-23.945999145507812 6.377999782562256,-9.543000221252441 C15.947999954223633,-23.864999771118164 5.732999801635742,-28.19700050354004 2.2950000762939453,-11.538000106811523z M-18,-36 C-27.941999435424805,-36 -36,-27.941999435424805 -36,-18 C-36,-18 -36,18 -36,18 C-36,27.941999435424805 -27.941999435424805,36 -18,36 C-18,36 18,36 18,36 C27.941999435424805,36 36,27.941999435424805 36,18 C36,18 36,-18 36,-18 C36,-27.941999435424805 27.941999435424805,-36 18,-36 C18,-36 -18,-36 -18,-36z"/>
          <g opacity="1" transform="matrix(1,0,0,1,0,0)"/>
          <g opacity="1" transform="matrix(1,0,0,1,0,0)"/>
        </g>
      </g>
    </g>
    <g mask="url(#__lottie_element_28_1)" style="display: none;">
      <g transform="matrix(0.9174277782440186,0,0,0.9174277782440186,429.9685974121094,367.59588623046875)" opacity="0.024994000000036466">
        <g opacity="1" transform="matrix(1,0,0,1,0,0)">
          <path fill="rgb(19,19,20)" fill-opacity="1" d=" M2.2950000762939453,-11.538000106811523 C5.499000072479248,-28.24799919128418 -5.5980000495910645,-28.152000427246094 -2.23799991607666,-11.258999824523926 C-5.616000175476074,-28.24799919128418 -16.00200080871582,-23.945999145507812 -6.377999782562256,-9.543000221252441 C-16.00200080871582,-23.945999145507812 -23.945999145507812,-16.00200080871582 -9.543000221252441,-6.377999782562256 C-23.945999145507812,-16.00200080871582 -28.24799919128418,-5.616000175476074 -11.258999824523926,-2.23799991607666 C-28.24799919128418,-5.61899995803833 -28.24799919128418,5.61899995803833 -11.258999824523926,2.23799991607666 C-28.24799919128418,5.61899995803833 -23.945999145507812,16.00200080871582 -9.543000221252441,6.377999782562256 C-23.945999145507812,16.00200080871582 -15.99899959564209,23.945999145507812 -6.377999782562256,9.543000221252441 C-16.00200080871582,23.945999145507812 -5.616000175476074,28.2450008392334 -2.23799991607666,11.258999824523926 C-5.61899995803833,28.24799919128418 5.61899995803833,28.24799919128418 2.23799991607666,11.258999824523926 C5.61899995803833,28.24799919128418 16.00200080871582,23.945999145507812 6.377999782562256,9.543000221252441 C16.00200080871582,23.945999145507812 23.945999145507812,15.99899959564209 9.543000221252441,6.377999782562256 C23.945999145507812,16.00200080871582 28.2450008392334,5.616000175476074 11.258999824523926,2.23799991607666 C28.24799919128418,5.61899995803833 28.24799919128418,-5.61899995803833 11.258999824523926,-2.23799991607666 C28.24799919128418,-5.61899995803833 23.945999145507812,-16.00200080871582 9.543000221252441,-6.377999782562256 C23.945999145507812,-16.00200080871582 15.99899959564209,-23.945999145507812 6.377999782562256,-9.543000221252441 C15.947999954223633,-23.864999771118164 5.732999801635742,-28.19700050354004 2.2950000762939453,-11.538000106811523z"/>
          <g opacity="1" transform="matrix(1,0,0,1,0,0)"/>
        </g>
      </g>
    </g>
    <g mask="url(#__lottie_element_28_1)" style="display: none;">
      <g transform="matrix(0.9174277782440186,0,0,0.9174277782440186,518.0365600585938,136.4040985107422)" opacity="0.024994000000036466">
        <g opacity="1" transform="matrix(1,0,0,1,0,0)">
          <path fill="rgb(69,71,71)" fill-opacity="1" d=" M-15,-24 C-15,-24 -6.92,-24 -6.92,-24 C-6.92,-24 -6.92,-19.83 -6.92,-19.83 C-6.92,-19.83 -0.69,-19.83 -0.69,-19.83 C-0.69,-19.83 -0.69,-15.86 -0.69,-15.86 C-0.69,-15.86 5.77,-15.86 5.77,-15.86 C5.77,-15.86 5.77,-11.27 5.77,-11.27 C5.77,-11.27 11.08,-11.27 11.08,-11.27 C11.08,-11.27 11.08,-7.51 11.08,-7.51 C11.08,-7.51 16.39,-7.51 16.39,-7.51 C16.39,-7.51 16.39,-2.92 16.39,-2.92 C16.39,-2.92 21,-2.92 21,-2.92 C21,-2.92 21,2.92 21,2.92 C21,2.92 16.39,2.92 16.39,2.92 C16.39,2.92 16.39,7.51 16.39,7.51 C16.39,7.51 11.08,7.51 11.08,7.51 C11.08,7.51 11.08,11.27 11.08,11.27 C11.08,11.27 5.77,11.27 5.77,11.27 C5.77,11.27 5.77,15.86 5.77,15.86 C5.77,15.86 -0.69,15.86 -0.69,15.86 C-0.69,15.86 -0.69,19.83 -0.69,19.83 C-0.69,19.83 -6.92,19.83 -6.92,19.83 C-6.92,19.83 -6.92,24 -6.92,24 C-6.92,24 -15,24 -15,24 C-15,24 -15,-24 -15,-24z M-18,-36 C-27.941999435424805,-36 -36,-27.94099998474121 -36,-18 C-36,-18 -36,18 -36,18 C-36,27.94099998474121 -27.941999435424805,36 -18,36 C-18,36 18,36 18,36 C27.941999435424805,36 36,27.94099998474121 36,18 C36,18 36,-18 36,-18 C36,-27.94099998474121 27.941999435424805,-36 18,-36 C18,-36 -18,-36 -18,-36z"/>
          <g opacity="1" transform="matrix(1,0,0,1,3,0)"/>
          <g opacity="1" transform="matrix(1,0,0,1,0,0)"/>
        </g>
      </g>
    </g>
    <g mask="url(#__lottie_element_28_1)" style="display: none;">
      <g transform="matrix(0.9174277782440186,0,0,0.9174277782440186,518.0365600585938,136.4040985107422)" opacity="0.024994000000036466">
        <g opacity="1" transform="matrix(1,0,0,1,0,0)">
          <path fill="rgb(19,19,20)" fill-opacity="1" d=" M-15,-24 C-15,-24 -6.92,-24 -6.92,-24 C-6.92,-24 -6.92,-19.83 -6.92,-19.83 C-6.92,-19.83 -0.69,-19.83 -0.69,-19.83 C-0.69,-19.83 -0.69,-15.86 -0.69,-15.86 C-0.69,-15.86 5.77,-15.86 5.77,-15.86 C5.77,-15.86 5.77,-11.27 5.77,-11.27 C5.77,-11.27 11.08,-11.27 11.08,-11.27 C11.08,-11.27 11.08,-7.51 11.08,-7.51 C11.08,-7.51 16.39,-7.51 16.39,-7.51 C16.39,-7.51 16.39,-2.92 16.39,-2.92 C16.39,-2.92 21,-2.92 21,-2.92 C21,-2.92 21,2.92 21,2.92 C21,2.92 16.39,2.92 16.39,2.92 C16.39,2.92 16.39,7.51 16.39,7.51 C16.39,7.51 11.08,7.51 11.08,7.51 C11.08,7.51 11.08,11.27 11.08,11.27 C11.08,11.27 5.77,11.27 5.77,11.27 C5.77,11.27 5.77,15.86 5.77,15.86 C5.77,15.86 -0.69,15.86 -0.69,15.86 C-0.69,15.86 -0.69,19.83 -0.69,19.83 C-0.69,19.83 -6.92,19.83 -6.92,19.83 C-6.92,19.83 -6.92,24 -6.92,24 C-6.92,24 -15,24 -15,24 C-15,24 -15,-24 -15,-24z"/>
          <g opacity="1" transform="matrix(1,0,0,1,3,0)"/>
        </g>
      </g>
    </g>
    <g mask="url(#__lottie_element_28_1)" style="display: none;">
      <g transform="matrix(1.7395775318145752,0,0,1.7395775318145752,451.7550048828125,175.25265502929688)" opacity="0.024994000000036466">
        <path stroke-linecap="butt" stroke-linejoin="miter" fill-opacity="0" stroke-miterlimit="4" stroke="rgb(69,71,71)" stroke-opacity="1" stroke-width="6" d=" M83.08124542236328,-65.08124542236328 C83.08124542236328,-65.08124542236328 83.08124542236328,65.08124542236328 83.08124542236328,65.08124542236328 C83.08124542236328,75.01544189453125 75.01544189453125,83.08124542236328 65.08124542236328,83.08124542236328 C65.08124542236328,83.08124542236328 -65.08124542236328,83.08124542236328 -65.08124542236328,83.08124542236328 C-75.01544189453125,83.08124542236328 -83.08124542236328,75.01544189453125 -83.08124542236328,65.08124542236328 C-83.08124542236328,65.08124542236328 -83.08124542236328,-65.08124542236328 -83.08124542236328,-65.08124542236328 C-83.08124542236328,-75.01544189453125 -75.01544189453125,-83.08124542236328 -65.08124542236328,-83.08124542236328 C-65.08124542236328,-83.08124542236328 65.08124542236328,-83.08124542236328 65.08124542236328,-83.08124542236328 C75.01544189453125,-83.08124542236328 83.08124542236328,-75.01544189453125 83.08124542236328,-65.08124542236328z"/>
        <g opacity="1" transform="matrix(1,0,0,1,0,0)">
          <path fill="rgb(19,19,20)" fill-opacity="1" d=" M83.08124542236328,-65.08124542236328 C83.08124542236328,-65.08124542236328 83.08124542236328,65.08124542236328 83.08124542236328,65.08124542236328 C83.08124542236328,75.01544189453125 75.01544189453125,83.08124542236328 65.08124542236328,83.08124542236328 C65.08124542236328,83.08124542236328 -65.08124542236328,83.08124542236328 -65.08124542236328,83.08124542236328 C-75.01544189453125,83.08124542236328 -83.08124542236328,75.01544189453125 -83.08124542236328,65.08124542236328 C-83.08124542236328,65.08124542236328 -83.08124542236328,-65.08124542236328 -83.08124542236328,-65.08124542236328 C-83.08124542236328,-75.01544189453125 -75.01544189453125,-83.08124542236328 -65.08124542236328,-83.08124542236328 C-65.08124542236328,-83.08124542236328 65.08124542236328,-83.08124542236328 65.08124542236328,-83.08124542236328 C75.01544189453125,-83.08124542236328 83.08124542236328,-75.01544189453125 83.08124542236328,-65.08124542236328z"/>
        </g>
      </g>
    </g>
    <g mask="url(#__lottie_element_28_1)" style="display: none;">
      <g transform="matrix(0.3700000047683716,0,0,0.3700000047683716,426,125.42500305175781)" opacity="1">
        <g opacity="1" transform="matrix(1,0,0,1,-43.3120002746582,-22.312000274658203)">
          <path fill="rgb(198,21,77)" fill-opacity="1" d=" M-14.437999725341797,-9.177000045776367 C-14.437999725341797,-9.177000045776367 -14.437999725341797,1.3229999542236328 -14.437999725341797,1.3229999542236328 C-14.437999725341797,1.3229999542236328 -2.3949999809265137,12.977999687194824 -2.3949999809265137,12.977999687194824 C-2.3949999809265137,12.977999687194824 11.812000274658203,21.01099967956543 11.812000274658203,21.01099967956543 C11.812000274658203,21.01099967956543 14.437999725341797,3.3380000591278076 14.437999725341797,3.3380000591278076 C14.437999725341797,3.3380000591278076 11.812000274658203,-13.11400032043457 11.812000274658203,-13.11400032043457 C11.812000274658203,-13.11400032043457 4.4629998207092285,-18.62700080871582 4.4629998207092285,-18.62700080871582 C-3.328000068664551,-24.468000411987305 -14.437999725341797,-18.909000396728516 -14.437999725341797,-9.177000045776367z"/>
        </g>
        <g opacity="1" transform="matrix(1,0,0,1,43.3120002746582,-22.312000274658203)">
          <path fill="rgb(225,198,23)" fill-opacity="1" d=" M-11.812000274658203,-13.11400032043457 C-11.812000274658203,-13.11400032043457 -14.437999725341797,3.553999900817871 -14.437999725341797,3.553999900817871 C-14.437999725341797,3.553999900817871 -11.812000274658203,21.01099967956543 -11.812000274658203,21.01099967956543 C-11.812000274658203,21.01099967956543 1.0820000171661377,14.625 1.0820000171661377,14.625 C1.0820000171661377,14.625 14.437999725341797,1.3229999542236328 14.437999725341797,1.3229999542236328 C14.437999725341797,1.3229999542236328 14.437999725341797,-9.177000045776367 14.437999725341797,-9.177000045776367 C14.437999725341797,-18.909000396728516 3.328000068664551,-24.468000411987305 -4.4629998207092285,-18.62700080871582 C-4.4629998207092285,-18.62700080871582 -11.812000274658203,-13.11400032043457 -11.812000274658203,-13.11400032043457z"/>
        </g>
        <g opacity="1" transform="matrix(1,0,0,1,-44.625,11.166000366210938)">
          <path fill="rgb(53,135,243)" fill-opacity="1" d=" M-5.25,32.15599822998047 C-5.25,32.15599822998047 13.125,32.15599822998047 13.125,32.15599822998047 C13.125,32.15599822998047 13.125,-12.468999862670898 13.125,-12.468999862670898 C13.125,-12.468999862670898 -13.125,-32.15599822998047 -13.125,-32.15599822998047 C-13.125,-32.15599822998047 -13.125,24.2810001373291 -13.125,24.2810001373291 C-13.125,28.631999969482422 -9.600000381469727,32.15599822998047 -5.25,32.15599822998047z"/>
        </g>
        <g opacity="1" transform="matrix(1,0,0,1,44.625,11.166000366210938)">
          <path fill="rgb(0,168,117)" fill-opacity="1" d=" M-13.125,32.15599822998047 C-13.125,32.15599822998047 5.25,32.15599822998047 5.25,32.15599822998047 C9.600000381469727,32.15599822998047 13.125,28.631999969482422 13.125,24.2810001373291 C13.125,24.2810001373291 13.125,-32.15599822998047 13.125,-32.15599822998047 C13.125,-32.15599822998047 -13.125,-12.468999862670898 -13.125,-12.468999862670898 C-13.125,-12.468999862670898 -13.125,32.15599822998047 -13.125,32.15599822998047z"/>
        </g>
        <g opacity="1" transform="matrix(1,0,0,1,0,-6.552000045776367)">
          <path fill="rgb(235,60,100)" fill-opacity="1" d=" M0,-5.25 C0,-5.25 -31.5,-28.875 -31.5,-28.875 C-31.5,-28.875 -31.5,5.25 -31.5,5.25 C-31.5,5.25 0,28.875 0,28.875 C0,28.875 31.5,5.25 31.5,5.25 C31.5,5.25 31.5,-28.875 31.5,-28.875 C31.5,-28.875 0,-5.25 0,-5.25z"/>
        </g>
      </g>
    </g>
    <g style="display: none;" transform="matrix(1.0003772974014282,0,0,1.0003772974014282,425.5131530761719,125.52497100830078)" opacity="1">
      <path stroke-linecap="round" stroke-linejoin="round" fill-opacity="0" stroke="rgb(10,113,233)" stroke-opacity="1" stroke-width="4" d="M0 0"/>
      <g opacity="1" transform="matrix(1,0,0,1,0,0)"/>
    </g>
    <g transform="matrix(1,0,0,1,476.25,252)" opacity="1" style="display: block;">
      <g opacity="1" transform="matrix(1,0,0,1,-2.25,0)">
        <path stroke-linecap="butt" stroke-linejoin="miter" fill-opacity="0" stroke-miterlimit="4" stroke="rgb(227,227,228)" stroke-opacity="1" stroke-width="3" d=" M-72,-226.5 C-72,-226.5 72,-226.5 72,-226.5 C94.36799621582031,-226.5 112.5,-208.3679962158203 112.5,-186 C112.5,-186 112.5,186 112.5,186 C112.5,208.3679962158203 94.36799621582031,226.5 72,226.5 C72,226.5 -72,226.5 -72,226.5 C-94.36799621582031,226.5 -112.5,208.3679962158203 -112.5,186 C-112.5,186 -112.5,-186 -112.5,-186 C-112.5,-208.3679962158203 -94.36799621582031,-226.5 -72,-226.5z"/>
      </g>
      <g opacity="1" transform="matrix(1,0,0,1,-2.25,-207)">
        <path fill="rgb(227,227,228)" fill-opacity="1" d=" M0,-6 C0,-6 0,-6 0,-6 C3.313999891281128,-6 6,-3.313999891281128 6,0 C6,0 6,0 6,0 C6,3.313999891281128 3.313999891281128,6 0,6 C0,6 0,6 0,6 C-3.313999891281128,6 -6,3.313999891281128 -6,0 C-6,0 -6,0 -6,0 C-6,-3.313999891281128 -3.313999891281128,-6 0,-6z"/>
      </g>
    </g>
    <g mask="url(#__lottie_element_28_1)" style="display: block;">
      <g transform="matrix(0.8799999952316284,0,0,0.8799999952316284,474,216.4239959716797)" opacity="1">
        <g opacity="1" transform="matrix(1,0,0,1,-43.3120002746582,-22.312000274658203)">
          <path fill="rgb(198,21,77)" fill-opacity="1" d=" M-14.437999725341797,-9.177000045776367 C-14.437999725341797,-9.177000045776367 -14.437999725341797,1.3229999542236328 -14.437999725341797,1.3229999542236328 C-14.437999725341797,1.3229999542236328 -2.3949999809265137,12.977999687194824 -2.3949999809265137,12.977999687194824 C-2.3949999809265137,12.977999687194824 11.812000274658203,21.01099967956543 11.812000274658203,21.01099967956543 C11.812000274658203,21.01099967956543 14.437999725341797,3.3380000591278076 14.437999725341797,3.3380000591278076 C14.437999725341797,3.3380000591278076 11.812000274658203,-13.11400032043457 11.812000274658203,-13.11400032043457 C11.812000274658203,-13.11400032043457 4.4629998207092285,-18.62700080871582 4.4629998207092285,-18.62700080871582 C-3.328000068664551,-24.468000411987305 -14.437999725341797,-18.909000396728516 -14.437999725341797,-9.177000045776367z"/>
        </g>
        <g opacity="1" transform="matrix(1,0,0,1,43.3120002746582,-22.312000274658203)">
          <path fill="rgb(225,198,23)" fill-opacity="1" d=" M-11.812000274658203,-13.11400032043457 C-11.812000274658203,-13.11400032043457 -14.437999725341797,3.553999900817871 -14.437999725341797,3.553999900817871 C-14.437999725341797,3.553999900817871 -11.812000274658203,21.01099967956543 -11.812000274658203,21.01099967956543 C-11.812000274658203,21.01099967956543 1.0820000171661377,14.625 1.0820000171661377,14.625 C1.0820000171661377,14.625 14.437999725341797,1.3229999542236328 14.437999725341797,1.3229999542236328 C14.437999725341797,1.3229999542236328 14.437999725341797,-9.177000045776367 14.437999725341797,-9.177000045776367 C14.437999725341797,-18.909000396728516 3.328000068664551,-24.468000411987305 -4.4629998207092285,-18.62700080871582 C-4.4629998207092285,-18.62700080871582 -11.812000274658203,-13.11400032043457 -11.812000274658203,-13.11400032043457z"/>
        </g>
        <g opacity="1" transform="matrix(1,0,0,1,-44.625,11.166000366210938)">
          <path fill="rgb(53,135,243)" fill-opacity="1" d=" M-5.25,32.15599822998047 C-5.25,32.15599822998047 13.125,32.15599822998047 13.125,32.15599822998047 C13.125,32.15599822998047 13.125,-12.468999862670898 13.125,-12.468999862670898 C13.125,-12.468999862670898 -13.125,-32.15599822998047 -13.125,-32.15599822998047 C-13.125,-32.15599822998047 -13.125,24.2810001373291 -13.125,24.2810001373291 C-13.125,28.631999969482422 -9.600000381469727,32.15599822998047 -5.25,32.15599822998047z"/>
        </g>
        <g opacity="1" transform="matrix(1,0,0,1,44.625,11.166000366210938)">
          <path fill="rgb(0,168,117)" fill-opacity="1" d=" M-13.125,32.15599822998047 C-13.125,32.15599822998047 5.25,32.15599822998047 5.25,32.15599822998047 C9.600000381469727,32.15599822998047 13.125,28.631999969482422 13.125,24.2810001373291 C13.125,24.2810001373291 13.125,-32.15599822998047 13.125,-32.15599822998047 C13.125,-32.15599822998047 -13.125,-12.468999862670898 -13.125,-12.468999862670898 C-13.125,-12.468999862670898 -13.125,32.15599822998047 -13.125,32.15599822998047z"/>
        </g>
        <g opacity="1" transform="matrix(1,0,0,1,0,-6.552000045776367)">
          <path fill="rgb(235,60,100)" fill-opacity="1" d=" M0,-5.25 C0,-5.25 -31.5,-28.875 -31.5,-28.875 C-31.5,-28.875 -31.5,5.25 -31.5,5.25 C-31.5,5.25 0,28.875 0,28.875 C0,28.875 31.5,5.25 31.5,5.25 C31.5,5.25 31.5,-28.875 31.5,-28.875 C31.5,-28.875 0,-5.25 0,-5.25z"/>
        </g>
      </g>
    </g>
    <g style="display: none;" transform="matrix(1,0,0,1,473.74200439453125,113.34930419921875)" opacity="0.05288518937978665">
      <g opacity="1" transform="matrix(1,0,0,1,-43.194000244140625,-4.0279998779296875)">
        <path fill="rgb(31,31,31)" fill-opacity="1" d=" M-13.060999870300293,0 C-13.060999870300293,7.695000171661377 -6.854000091552734,13.96500015258789 0.5329999923706055,13.96500015258789 C4.535999774932861,13.96500015258789 7.531000137329102,12.600000381469727 9.892999649047852,10.050000190734863 C12.312000274658203,7.53000020980835 13.060999870300293,3.990000009536743 13.060999870300293,1.125 C13.060999870300293,0.23999999463558197 12.98900032043457,-0.5849999785423279 12.859000205993652,-1.2599999904632568 C12.859000205993652,-1.2599999904632568 0.5329999923706055,-1.2599999904632568 0.5329999923706055,-1.2599999904632568 C0.5329999923706055,-1.2599999904632568 0.5329999923706055,2.565000057220459 0.5329999923706055,2.565000057220459 C0.5329999923706055,2.565000057220459 9.288000106811523,2.565000057220459 9.288000106811523,2.565000057220459 C9.029000282287598,4.710000038146973 8.35200023651123,6.269999980926514 7.301000118255615,7.364999771118164 C6.019000053405762,8.6850004196167 4.0320000648498535,10.154999732971191 0.5329999923706055,10.154999732971191 C-4.867000102996826,10.154999732971191 -9.086000442504883,5.625 -9.086000442504883,0 C-9.086000442504883,-5.625 -4.867000102996826,-10.154999732971191 0.5329999923706055,-10.154999732971191 C3.441999912261963,-10.154999732971191 5.572000026702881,-8.954999923706055 7.142000198364258,-7.425000190734863 C7.142000198364258,-7.425000190734863 9.720000267028809,-10.109999656677246 9.720000267028809,-10.109999656677246 C7.531000137329102,-12.300000190734863 4.623000144958496,-13.96500015258789 0.5329999923706055,-13.96500015258789 C-6.854000091552734,-13.96500015258789 -13.060999870300293,-7.695000171661377 -13.060999870300293,0z"/>
      </g>
      <g opacity="1" transform="matrix(1,0,0,1,-0.875,0)">
        <path fill="rgb(31,31,31)" fill-opacity="1" d=" M-17.08,-4.51 C-14.51,-4.51 -12.3,-2.3 -12.3,0.94 C-12.3,4.15 -14.51,6.38 -17.08,6.38 C-19.64,6.38 -21.86,4.13 -21.86,0.94 C-21.86,-2.29 -19.64,-4.51 -17.08,-4.51z M-17.08,9.92 C-12.38,9.92 -8.57,6.11 -8.57,0.94 C-8.57,-4.27 -12.38,-8.05 -17.08,-8.05 C-21.77,-8.05 -25.59,-4.27 -25.59,0.94 C-25.59,6.11 -21.77,9.92 -17.08,9.92z"/>
        <g opacity="1" transform="matrix(1,0,0,1,-17.077999114990234,0.9380000233650208)"/>
        <g opacity="1" transform="matrix(1,0,0,1,-17.077999114990234,0.9369999766349792)"/>
      </g>
      <g opacity="1" transform="matrix(1,0,0,1,0,0)">
        <path fill="rgb(31,31,31)" fill-opacity="1" d=" M2,-4.51 C4.57,-4.51 6.78,-2.3 6.78,0.94 C6.78,4.15 4.57,6.4 2,6.38 C-0.56,6.38 -2.78,4.13 -2.78,0.94 C-2.78,-2.29 -0.56,-4.51 2,-4.51z M1.99,9.92 C6.68,9.92 10.5,6.11 10.5,0.94 C10.5,-4.27 6.68,-8.05 1.99,-8.05 C-2.71,-8.05 -6.52,-4.27 -6.52,0.94 C-6.52,6.11 -2.69,9.92 1.99,9.92z"/>
        <g opacity="1" transform="matrix(1,0,0,1,2.002000093460083,0.9380000233650208)"/>
        <g opacity="1" transform="matrix(1,0,0,1,1.9869999885559082,0.9369999766349792)"/>
      </g>
      <g opacity="1" transform="matrix(1,0,0,1,0.75,0)">
        <path fill="rgb(31,31,31)" fill-opacity="1" d=" M21.15,-4.51 C23.73,-4.51 25.76,-2.18 25.76,0.98 C25.76,4.12 23.73,6.4 21.15,6.4 C18.53,6.4 16.34,4.12 16.34,0.98 C16.34,-2.2 18.53,-4.51 21.15,-4.51z M29.1,8.63 C29.1,8.63 29.1,-7.51 29.1,-7.51 C29.1,-7.51 25.5,-7.51 25.5,-7.51 C25.5,-7.51 25.5,-6.05 25.5,-6.05 C25.5,-6.05 25.37,-6.05 25.37,-6.05 C24.52,-7.1 22.88,-8.06 20.82,-8.06 C16.52,-8.06 12.56,-4.1 12.56,0.97 C12.56,6.01 16.5,9.92 20.82,9.92 C22.88,9.92 24.52,8.98 25.37,7.88 C25.37,7.88 25.5,7.88 25.5,7.88 C25.5,7.88 25.5,9.17 25.5,9.17 C25.5,12.61 23.75,14.45 20.89,14.45 C18.58,14.45 17.14,12.73 16.55,11.26 C16.55,11.26 13.25,12.68 13.25,12.68 C14.2,15.07 16.7,17.99 20.89,17.99 C25.34,17.99 29.1,15.28 29.1,8.63z"/>
        <g opacity="1" transform="matrix(1,0,0,1,21.05299949645996,0.9440000057220459)"/>
        <g opacity="1" transform="matrix(1,0,0,1,20.829999923706055,4.965000152587891)"/>
      </g>
      <g opacity="1" transform="matrix(1,0,0,1,35.72200012207031,-3.818000078201294)">
        <path fill="rgb(31,31,31)" fill-opacity="1" d=" M1.8940000534057617,13.21500015258789 C1.8940000534057617,13.21500015258789 1.8940000534057617,-13.21500015258789 1.8940000534057617,-13.21500015258789 C1.8940000534057617,-13.21500015258789 -1.8940000534057617,-13.21500015258789 -1.8940000534057617,-13.21500015258789 C-1.8940000534057617,-13.21500015258789 -1.8940000534057617,13.21500015258789 -1.8940000534057617,13.21500015258789 C-1.8940000534057617,13.21500015258789 1.8940000534057617,13.21500015258789 1.8940000534057617,13.21500015258789z"/>
      </g>
      <g opacity="1" transform="matrix(1,0,0,1,2.125,0)">
        <path fill="rgb(31,31,31)" fill-opacity="1" d=" M49.32,-2.66 C49.32,-2.66 41.6,0.67 41.6,0.67 C41.5,-2.8 44.18,-4.57 46.11,-4.57 C47.62,-4.57 48.89,-3.79 49.32,-2.66z M53.6,5.95 C53.6,5.95 50.66,3.91 50.66,3.91 C49.68,5.41 48.34,6.41 46.41,6.41 C44.48,6.41 43.1,5.48 42.22,3.68 C42.22,3.68 53.75,-1.3 53.75,-1.3 C53.75,-1.3 53.37,-2.32 53.37,-2.32 C52.65,-4.33 50.46,-8.03 45.98,-8.03 C41.53,-8.03 37.96,-4.39 37.96,0.95 C37.96,5.99 41.49,9.94 46.4,9.94 C50.36,9.94 52.65,7.42 53.6,5.95z"/>
        <g opacity="1" transform="matrix(1,0,0,1,45.459999084472656,-1.9500000476837158)"/>
        <g opacity="1" transform="matrix(1,0,0,1,45.856998443603516,0.9520000219345093)"/>
      </g>
    </g>
    <g style="display: none;" transform="matrix(1,0,0,1,474,176.8666534423828)" opacity="0.007607901203203369">
      <g opacity="1" transform="matrix(1,0,0,1,0,0)">
        <path fill="rgb(69,71,71)" fill-opacity="1" d=" M-81,-6 C-81,-6 81,-6 81,-6 C84.31400299072266,-6 87,-3.313999891281128 87,0 C87,0 87,0 87,0 C87,3.313999891281128 84.31400299072266,6 81,6 C81,6 -81,6 -81,6 C-84.31400299072266,6 -87,3.313999891281128 -87,0 C-87,0 -87,0 -87,0 C-87,-3.313999891281128 -84.31400299072266,-6 -81,-6z"/>
      </g>
    </g>
    <g style="display: none;" transform="matrix(1,0,0,1,474,201.4069061279297)" opacity="0.01752644291868563">
      <g opacity="1" transform="matrix(1,0,0,1,0,0)">
        <path fill="rgb(69,71,71)" fill-opacity="1" d=" M-57,-6 C-57,-6 57,-6 57,-6 C60.31399917602539,-6 63,-3.313999891281128 63,0 C63,0 63,0 63,0 C63,3.313999891281128 60.31399917602539,6 57,6 C57,6 -57,6 -57,6 C-60.31399917602539,6 -63,3.313999891281128 -63,0 C-63,0 -63,0 -63,0 C-63,-3.313999891281128 -60.31399917602539,-6 -57,-6z"/>
      </g>
    </g>
    <g style="display: none;" transform="matrix(1,0,0,1,366,312.3901062011719)" opacity="0.06834662860037127">
      <g opacity="1" transform="matrix(1,0,0,1,0,0)">
        <g opacity="1" transform="matrix(1,0,0,1,0,0)">
          <g opacity="1" transform="matrix(1,0,0,1,0,0)">
            <path fill="rgb(19,19,20)" fill-opacity="1" d=" M6.123233998228043e-16,-97 C52.15743637084961,-97 97,-52.15743637084961 97,0 C97,52.15743637084961 52.15743637084961,97 6.123233998228043e-16,97 C-52.15743637084961,97 -97,52.15743637084961 -97,-1.2246467996456087e-15 C-97,-52.15743637084961 -52.15743637084961,-97 6.123233998228043e-16,-97 C6.123233998228043e-16,-97 6.123233998228043e-16,-97 6.123233998228043e-16,-97z"/>
            <path stroke-linecap="butt" stroke-linejoin="miter" fill-opacity="0" stroke-miterlimit="4" stroke="rgb(227,227,228)" stroke-opacity="1" stroke-width="3" d=" M6.123233998228043e-16,-97 C52.15743637084961,-97 97,-52.15743637084961 97,0 C97,52.15743637084961 52.15743637084961,97 6.123233998228043e-16,97 C-52.15743637084961,97 -97,52.15743637084961 -97,-1.2246467996456087e-15 C-97,-52.15743637084961 -52.15743637084961,-97 6.123233998228043e-16,-97 C6.123233998228043e-16,-97 6.123233998228043e-16,-97 6.123233998228043e-16,-97z"/>
          </g>
        </g>
      </g>
    </g>
    <g style="display: none;" transform="matrix(1,0,0,1,474,228.39010620117188)" opacity="0.06834662860037127">
      <g opacity="1" transform="matrix(1,0,0,1,0,0)">
        <path stroke-linecap="butt" stroke-linejoin="miter" fill-opacity="0" stroke-miterlimit="4" stroke="rgb(227,227,228)" stroke-opacity="1" stroke-width="7" d=" M-133.5,59 C-133.5,59 -82.75,109.25 -82.75,109.25"/>
      </g>
      <g opacity="1" transform="matrix(1,0,0,1,0,0)">
        <path stroke-linecap="butt" stroke-linejoin="miter" fill-opacity="0" stroke-miterlimit="4" stroke="rgb(227,227,228)" stroke-opacity="1" stroke-width="7" d=" M-82.75,59 C-82.75,59 -132.75,109 -132.75,109"/>
      </g>
    </g>
    <g style="display: none;" transform="matrix(8.300000190734863,0,0,8.300000190734863,589.656982421875,310.24609375)" opacity="0.06071952111536405">
      <path stroke-linecap="butt" stroke-linejoin="miter" fill-opacity="0" stroke-miterlimit="4" stroke="rgb(131,172,241)" stroke-opacity="1" stroke-width="0.600001770663732" d=" M1.0479999780654907,-9.819999694824219 C0.5849999785423279,-10.595999717712402 -0.5849999785423279,-10.595999717712402 -1.0479999780654907,-9.819999694824219 C-1.0479999780654907,-9.819999694824219 -1.9620000123977661,-8.288000106811523 -1.9620000123977661,-8.288000106811523 C-2.2699999809265137,-7.770999908447266 -2.937999963760376,-7.563000202178955 -3.505000114440918,-7.808000087738037 C-3.505000114440918,-7.808000087738037 -5.186999797821045,-8.534000396728516 -5.186999797821045,-8.534000396728516 C-6.038000106811523,-8.901000022888184 -6.984000205993652,-8.244000434875488 -6.881999969482422,-7.355999946594238 C-6.881999969482422,-7.355999946594238 -6.679999828338623,-5.6020002365112305 -6.679999828338623,-5.6020002365112305 C-6.611999988555908,-5.011000156402588 -7.025000095367432,-4.4670000076293945 -7.633999824523926,-4.3460001945495605 C-7.633999824523926,-4.3460001945495605 -9.4399995803833,-3.98799991607666 -9.4399995803833,-3.98799991607666 C-10.354000091552734,-3.806999921798706 -10.71500015258789,-2.743000030517578 -10.086999893188477,-2.0820000171661377 C-10.086999893188477,-2.0820000171661377 -8.845999717712402,-0.7760000228881836 -8.845999717712402,-0.7760000228881836 C-8.428000450134277,-0.335999995470047 -8.428000450134277,0.335999995470047 -8.845999717712402,0.7760000228881836 C-8.845999717712402,0.7760000228881836 -10.086999893188477,2.0820000171661377 -10.086999893188477,2.0820000171661377 C-10.71500015258789,2.743000030517578 -10.354000091552734,3.806999921798706 -9.4399995803833,3.98799991607666 C-9.4399995803833,3.98799991607666 -7.633999824523926,4.3460001945495605 -7.633999824523926,4.3460001945495605 C-7.025000095367432,4.4670000076293945 -6.611999988555908,5.011000156402588 -6.679999828338623,5.6020002365112305 C-6.679999828338623,5.6020002365112305 -6.881999969482422,7.355999946594238 -6.881999969482422,7.355999946594238 C-6.984000205993652,8.244000434875488 -6.038000106811523,8.901000022888184 -5.186999797821045,8.534000396728516 C-5.186999797821045,8.534000396728516 -3.505000114440918,7.808000087738037 -3.505000114440918,7.808000087738037 C-2.937999963760376,7.563000202178955 -2.2699999809265137,7.770999908447266 -1.9620000123977661,8.288000106811523 C-1.9620000123977661,8.288000106811523 -1.0479999780654907,9.819999694824219 -1.0479999780654907,9.819999694824219 C-0.5849999785423279,10.595999717712402 0.5849999785423279,10.595999717712402 1.0479999780654907,9.819999694824219 C1.0479999780654907,9.819999694824219 1.9620000123977661,8.288000106811523 1.9620000123977661,8.288000106811523 C2.2699999809265137,7.770999908447266 2.937999963760376,7.563000202178955 3.505000114440918,7.808000087738037 C3.505000114440918,7.808000087738037 5.186999797821045,8.534000396728516 5.186999797821045,8.534000396728516 C6.038000106811523,8.901000022888184 6.984000205993652,8.244000434875488 6.881999969482422,7.355999946594238 C6.881999969482422,7.355999946594238 6.679999828338623,5.6020002365112305 6.679999828338623,5.6020002365112305 C6.611999988555908,5.011000156402588 7.025000095367432,4.4670000076293945 7.633999824523926,4.3460001945495605 C7.633999824523926,4.3460001945495605 9.4399995803833,3.98799991607666 9.4399995803833,3.98799991607666 C10.354000091552734,3.806999921798706 10.71500015258789,2.743000030517578 10.086999893188477,2.0820000171661377 C10.086999893188477,2.0820000171661377 8.845999717712402,0.7760000228881836 8.845999717712402,0.7760000228881836 C8.428000450134277,0.335999995470047 8.428000450134277,-0.335999995470047 8.845999717712402,-0.7760000228881836 C8.845999717712402,-0.7760000228881836 10.086999893188477,-2.0820000171661377 10.086999893188477,-2.0820000171661377 C10.71500015258789,-2.743000030517578 10.354000091552734,-3.806999921798706 9.4399995803833,-3.98799991607666 C9.4399995803833,-3.98799991607666 7.633999824523926,-4.3460001945495605 7.633999824523926,-4.3460001945495605 C7.025000095367432,-4.4670000076293945 6.611999988555908,-5.011000156402588 6.679999828338623,-5.6020002365112305 C6.679999828338623,-5.6020002365112305 6.881999969482422,-7.355999946594238 6.881999969482422,-7.355999946594238 C6.984000205993652,-8.244000434875488 6.038000106811523,-8.901000022888184 5.186999797821045,-8.534000396728516 C5.186999797821045,-8.534000396728516 3.505000114440918,-7.808000087738037 3.505000114440918,-7.808000087738037 C2.937999963760376,-7.563000202178955 2.2699999809265137,-7.770999908447266 1.9620000123977661,-8.288000106811523 C1.9620000123977661,-8.288000106811523 1.0479999780654907,-9.819999694824219 1.0479999780654907,-9.819999694824219z"/>
      <g opacity="1" transform="matrix(1,0,0,1,0,0)">
        <path fill="rgb(131,172,241)" fill-opacity="1" d=" M1.0479999780654907,-9.819999694824219 C0.5849999785423279,-10.595999717712402 -0.5849999785423279,-10.595999717712402 -1.0479999780654907,-9.819999694824219 C-1.0479999780654907,-9.819999694824219 -1.9620000123977661,-8.288000106811523 -1.9620000123977661,-8.288000106811523 C-2.2699999809265137,-7.770999908447266 -2.937999963760376,-7.563000202178955 -3.505000114440918,-7.808000087738037 C-3.505000114440918,-7.808000087738037 -5.186999797821045,-8.534000396728516 -5.186999797821045,-8.534000396728516 C-6.038000106811523,-8.901000022888184 -6.984000205993652,-8.244000434875488 -6.881999969482422,-7.355999946594238 C-6.881999969482422,-7.355999946594238 -6.679999828338623,-5.6020002365112305 -6.679999828338623,-5.6020002365112305 C-6.611999988555908,-5.011000156402588 -7.025000095367432,-4.4670000076293945 -7.633999824523926,-4.3460001945495605 C-7.633999824523926,-4.3460001945495605 -9.4399995803833,-3.98799991607666 -9.4399995803833,-3.98799991607666 C-10.354000091552734,-3.806999921798706 -10.71500015258789,-2.743000030517578 -10.086999893188477,-2.0820000171661377 C-10.086999893188477,-2.0820000171661377 -8.845999717712402,-0.7760000228881836 -8.845999717712402,-0.7760000228881836 C-8.428000450134277,-0.335999995470047 -8.428000450134277,0.335999995470047 -8.845999717712402,0.7760000228881836 C-8.845999717712402,0.7760000228881836 -10.086999893188477,2.0820000171661377 -10.086999893188477,2.0820000171661377 C-10.71500015258789,2.743000030517578 -10.354000091552734,3.806999921798706 -9.4399995803833,3.98799991607666 C-9.4399995803833,3.98799991607666 -7.633999824523926,4.3460001945495605 -7.633999824523926,4.3460001945495605 C-7.025000095367432,4.4670000076293945 -6.611999988555908,5.011000156402588 -6.679999828338623,5.6020002365112305 C-6.679999828338623,5.6020002365112305 -6.881999969482422,7.355999946594238 -6.881999969482422,7.355999946594238 C-6.984000205993652,8.244000434875488 -6.038000106811523,8.901000022888184 -5.186999797821045,8.534000396728516 C-5.186999797821045,8.534000396728516 -3.505000114440918,7.808000087738037 -3.505000114440918,7.808000087738037 C-2.937999963760376,7.563000202178955 -2.2699999809265137,7.770999908447266 -1.9620000123977661,8.288000106811523 C-1.9620000123977661,8.288000106811523 -1.0479999780654907,9.819999694824219 -1.0479999780654907,9.819999694824219 C-0.5849999785423279,10.595999717712402 0.5849999785423279,10.595999717712402 1.0479999780654907,9.819999694824219 C1.0479999780654907,9.819999694824219 1.9620000123977661,8.288000106811523 1.9620000123977661,8.288000106811523 C2.2699999809265137,7.770999908447266 2.937999963760376,7.563000202178955 3.505000114440918,7.808000087738037 C3.505000114440918,7.808000087738037 5.186999797821045,8.534000396728516 5.186999797821045,8.534000396728516 C6.038000106811523,8.901000022888184 6.984000205993652,8.244000434875488 6.881999969482422,7.355999946594238 C6.881999969482422,7.355999946594238 6.679999828338623,5.6020002365112305 6.679999828338623,5.6020002365112305 C6.611999988555908,5.011000156402588 7.025000095367432,4.4670000076293945 7.633999824523926,4.3460001945495605 C7.633999824523926,4.3460001945495605 9.4399995803833,3.98799991607666 9.4399995803833,3.98799991607666 C10.354000091552734,3.806999921798706 10.71500015258789,2.743000030517578 10.086999893188477,2.0820000171661377 C10.086999893188477,2.0820000171661377 8.845999717712402,0.7760000228881836 8.845999717712402,0.7760000228881836 C8.428000450134277,0.335999995470047 8.428000450134277,-0.335999995470047 8.845999717712402,-0.7760000228881836 C8.845999717712402,-0.7760000228881836 10.086999893188477,-2.0820000171661377 10.086999893188477,-2.0820000171661377 C10.71500015258789,-2.743000030517578 10.354000091552734,-3.806999921798706 9.4399995803833,-3.98799991607666 C9.4399995803833,-3.98799991607666 7.633999824523926,-4.3460001945495605 7.633999824523926,-4.3460001945495605 C7.025000095367432,-4.4670000076293945 6.611999988555908,-5.011000156402588 6.679999828338623,-5.6020002365112305 C6.679999828338623,-5.6020002365112305 6.881999969482422,-7.355999946594238 6.881999969482422,-7.355999946594238 C6.984000205993652,-8.244000434875488 6.038000106811523,-8.901000022888184 5.186999797821045,-8.534000396728516 C5.186999797821045,-8.534000396728516 3.505000114440918,-7.808000087738037 3.505000114440918,-7.808000087738037 C2.937999963760376,-7.563000202178955 2.2699999809265137,-7.770999908447266 1.9620000123977661,-8.288000106811523 C1.9620000123977661,-8.288000106811523 1.0479999780654907,-9.819999694824219 1.0479999780654907,-9.819999694824219z"/>
      </g>
    </g>
    <g style="display: none;" transform="matrix(0.9999840259552002,0,0,0.9999840259552002,590.9122924804688,291.98614501953125)" opacity="0.01">
      <g opacity="1" transform="matrix(1,0,0,1,0,0)">
        <path stroke-linecap="butt" stroke-linejoin="miter" fill-opacity="0" stroke-miterlimit="4" stroke="rgb(0,0,0)" stroke-opacity="1" stroke-width="7" d=" M-31.5,-18 C-31.5,-18 -11.75,2 -11.75,2 C-11.75,2 28.25,-37.75 28.25,-37.75"/>
      </g>
    </g>
  </g>
</svg>
